<?xml version="1.0" encoding="utf-8"?>
<!-- Generator: Adobe Illustrator 19.0.0, SVG Export Plug-In . SVG Version: 6.00 Build 0)  -->
<svg version="1.0" id="Layer_1" xmlns="http://www.w3.org/2000/svg" xmlns:xlink="http://www.w3.org/1999/xlink" x="0px" y="0px"
	 viewBox="0 0 512 512" style="enable-background:new 0 0 512 512;" xml:space="preserve">
<style type="text/css">
	.st0{fill:#D20A0A;}
</style>
<g>
	<path class="st0" d="M201.6,437.1c0-19.1,0.1-38.2-0.1-57.3c0-2.2-0.8-4.7-2-6.6c-9.2-14.4-18.7-28.5-27.9-42.9
		c-1.3-2-2.2-4.6-2.2-6.9c-0.1-28.9-0.2-57.8,0-86.6c0.1-17.8,13.6-34.8,31-40.2c3-0.9,6-1.5,8.9-2.7c8-3.4,11.4,0.4,13.9,7.1
		c4.6,12.2,8.9,24.4,13.4,36.6c4.9,13.3,9.7,26.7,14.7,40c0.5,1.4,2.3,3.5,3.2,3.3c1.8-0.3,4.3-1.5,5-3c2.2-4.6,3.8-9.5,5.5-14.3
		c8.1-22.1,16.1-44.1,24.1-66.2c1.9-5.3,3.2-6,8.6-4.1c6.8,2.4,14.2,4.1,20.3,7.8c15.7,9.5,24.8,23.2,24.6,42.3
		c-0.2,27.8,0,55.6-0.1,83.4c0,2.1-0.7,4.5-1.8,6.3c-9.2,14.3-18.7,28.5-27.9,42.9c-1.3,2.1-2.2,4.8-2.2,7.2
		c-0.1,32.8,0,65.6,0,98.4c0,5.6,0,11.2,0,16.8c-0.1,4.6-1.5,5.9-6.1,5.9c-31.3,0-62.5,0-93.8,0c-5.4,0-9.2-3.8-9.2-9.1
		C201.6,475.7,201.6,456.4,201.6,437.1C201.6,437.1,201.6,437.1,201.6,437.1z"/>
	<path class="st0" d="M381.4,400.2c0-12.4,0.1-24.8-0.1-37.2c0-1.9-0.7-4-1.7-5.6c-5.4-8.6-11.3-16.9-16.5-25.5
		c-1.8-3-3.1-6.8-3.1-10.3c-0.3-19-0.1-37.9-0.1-56.9c0-15.9,10.9-30.8,26.1-35.8c2.8-0.9,5.7-1.7,8.5-2.7c4.7-1.6,8.9-0.7,12.8,2.3
		c5.4,4.1,10.9,8.1,16.2,12.3c1.6,1.2,2.7,1.4,4.4,0.1c5.3-4.1,10.7-8,16-12.1c3-2.3,6.3-4,10.2-3.2c14.8,3,27,9.7,35.1,23
		c3.2,5.2,5.1,10.9,5.1,16.9c0.2,20.4,0.3,40.8,0,61.2c0,3.2-1.9,6.6-3.7,9.4c-5.2,8.4-10.9,16.5-16.2,24.9c-0.9,1.4-1.4,3.3-1.4,5
		c-0.1,24.5-0.1,48.9-0.1,73.4c0,9.8-4.1,13.9-13.9,13.9c-20.5,0-41,0-61.6,0c-8.9,0-15.9-6.8-15.9-15.8
		C381.4,425,381.5,412.6,381.4,400.2C381.5,400.2,381.5,400.2,381.4,400.2z"/>
	<path class="st0" d="M39.1,399.7c0-12.4,0-24.8-0.1-37.2c0-1.6-0.5-3.3-1.4-4.6C32,349,26,340.4,20.6,331.4
		c-1.8-2.9-2.9-6.6-2.9-10c-0.3-17.9-0.1-35.8-0.1-53.7c0.1-20.3,10.1-33.8,29.4-39.8c1.7-0.5,3.5-1,5.1-1.6c5-2,9.3-0.8,13.4,2.4
		c5.2,4,10.5,7.8,15.6,11.9c1.9,1.5,3.2,1.3,5-0.1c5.1-4,10.3-7.7,15.4-11.7c4.3-3.4,8.7-3.8,14.1-2.5c13.4,3.4,23.9,10.3,31.3,22
		c4,6.4,5.4,13.4,5.4,20.8c0,18.4,0,36.7,0,55.1c0,4-0.9,7.4-3.2,10.7c-5.6,8.2-11.1,16.4-16.3,24.8c-1.2,1.9-2,4.4-2.1,6.6
		c-0.2,24.5-0.3,48.9,0,73.4c0.1,8.9-5.5,13.5-13.4,13.5c-20.9-0.1-41.8,0-62.6-0.1c-8.3,0-15.4-7.1-15.5-15.6
		C39.1,425,39.2,412.4,39.1,399.7C39.2,399.7,39.1,399.7,39.1,399.7z"/>
	<path class="st0" d="M432.4,102.2c-0.4,6.6-2.7,10.3-7.4,12.4c-4.7,2.1-9.9,1.3-13.5-2.6c-5.9-6.4-11.3-13.2-17.4-19.5
		c-27.5-28.5-60.9-46.3-99.8-53.7c-41.7-7.9-81.9-2.9-120.3,15.4c-27.1,12.9-49.6,31.5-68.1,55.1c-3.4,4.3-7.4,7.3-13.1,6.1
		c-6.1-1.3-9.9-5.6-12.3-11c-1.8-4.2-0.4-8.2,2.3-11.7c12.4-16.3,26.8-30.4,43.2-42.5c28.5-21.2,60.4-34.4,95.5-39.8
		c29.8-4.6,59.5-3.1,88.7,4.7c43,11.4,78.9,34.3,108.3,67.4c3.8,4.3,7.5,8.7,10.8,13.3C431,98,431.8,100.9,432.4,102.2z"/>
	<path class="st0" d="M204.9,122.4c-0.3-27.3,21.7-49.7,49.3-50c28-0.3,52.9,24,53.2,52c0.3,27.4-21.6,50-48.9,50.4
		C229.9,175.2,205.2,151.1,204.9,122.4z"/>
	<path class="st0" d="M467.2,180.2c-0.1,21.2-17.4,38.2-38.7,38.1c-21.7-0.1-41.5-20-41.3-41.7c0.2-21.5,17.6-38.1,39.4-38.3
		C446.6,138.1,468.4,159.1,467.2,180.2z"/>
	<path class="st0" d="M124.9,180.1c-0.2,21.5-17.5,38.5-39,38.3c-21.8-0.2-41.3-20.2-41.1-41.9c0.2-21.3,17.8-38,39.3-38.2
		C104.2,138.1,125.9,158.8,124.9,180.1z"/>
	<path class="st0" d="M255.6,192.9c4.2-0.3,9.1-0.5,12.8,4.2c2.4,3,3.4,5.8,0.8,8.6c-6.1,6.8-7.5,14.5-5.2,23.1c0.6,2.4,0.3,5,1,7.4
		c2.7,9.8-2.8,17.8-5.8,26.3c-0.7,2-1.8,1.9-3.4,0.3c-5.7-5.7-6.3-13.6-9.4-20.4c-0.3-0.7,0-1.6,0.1-2.5c1-8.1,2-16.1,2.8-24.2
		c0.2-1.5-0.3-3.3-1-4.7c-1.6-2.9-3.7-5.5-5.5-8.4c-2.9-4.8-0.4-9.5,5.2-9.9C250.3,192.8,252.5,192.9,255.6,192.9z"/>
</g>
</svg>
